<svg xmlns="http://www.w3.org/2000/svg" xmlns:xlink="http://www.w3.org/1999/xlink" version="1.1" width="1000" height="1000" viewBox="0 0 1000 1000" xml:space="preserve">
<desc>Created with Fabric.js 3.5.0</desc>
<defs>
</defs>
<rect x="0" y="0" width="100%" height="100%" fill="#1d70b8"/>
<g transform="matrix(1.9085 0 0 1.9085 499.9981 499.9986)" id="550393">
<g style="" vector-effect="non-scaling-stroke">
		<g transform="matrix(1 0 0 1 0 0)" id="path2451">
<path style="stroke: rgb(255,255,255); stroke-width: 30.655; stroke-dasharray: none; stroke-linecap: butt; stroke-dashoffset: 0; stroke-linejoin: miter; stroke-miterlimit: 4; is-custom-font: none; font-file-url: none; fill: none; fill-rule: nonzero; opacity: 1;" transform=" translate(-365.016, -311.065)" d="M 569.374 461.472 L 569.374 160.658 L 160.658 160.658 L 160.658 461.472 L 569.374 461.472 z" stroke-linecap="round"/>
</g>
		<g transform="matrix(1 0 0 1 -365.016 -311.065)" id="path2453">
<path style="stroke: rgb(255,255,255); stroke-width: 30.655; stroke-dasharray: none; stroke-linecap: butt; stroke-dashoffset: 0; stroke-linejoin: miter; stroke-miterlimit: 4; is-custom-font: none; font-file-url: none; fill: none; fill-rule: nonzero; opacity: 1;" transform=" translate(0, 0)" d="" stroke-linecap="round"/>
</g>
		<g transform="matrix(1 0 0 1 0.525 -52.324)" id="path2455">
<path style="stroke: rgb(255,255,255); stroke-width: 30.655; stroke-dasharray: none; stroke-linecap: butt; stroke-dashoffset: 0; stroke-linejoin: miter; stroke-miterlimit: 4; is-custom-font: none; font-file-url: none; fill: none; fill-rule: nonzero; opacity: 1;" transform=" translate(-365.541, -258.741)" d="M 164.46 164.49 L 340.78 343.158 C 353.849 356.328 377.63 356.172 390.423 343.278 L 566.622 165.928" stroke-linecap="round"/>
</g>
		<g transform="matrix(1 0 0 1 -126.9535 71.448)" id="path2457">
<path style="stroke: rgb(255,255,255); stroke-width: 30.655; stroke-dasharray: none; stroke-linecap: butt; stroke-dashoffset: 0; stroke-linejoin: miter; stroke-miterlimit: 4; is-custom-font: none; font-file-url: none; fill: none; fill-rule: nonzero; opacity: 1;" transform=" translate(-238.0625, -382.513)" d="M 170.515 451.566 L 305.61 313.46" stroke-linecap="round"/>
</g>
		<g transform="matrix(1 0 0 1 127.2255 71.6095)" id="path2459">
<path style="stroke: rgb(255,255,255); stroke-width: 30.655; stroke-dasharray: none; stroke-linecap: butt; stroke-dashoffset: 0; stroke-linejoin: miter; stroke-miterlimit: 4; is-custom-font: none; font-file-url: none; fill: none; fill-rule: nonzero; opacity: 1;" transform=" translate(-492.2415, -382.6745)" d="M 557.968 449.974 L 426.515 315.375" stroke-linecap="round"/>
</g>
</g>
</g>
</svg>